# xmcd CD database file
#
# Track frame offsets:
#	150
#	17752
#	42795
#
# Disc length: 802 seconds
#
# Revision: 0
# Processed by: cddbd v1.5PL3 Copyright (c) Steve Scherf et al.
# Submitted via: CDex 1.50beta9
#
DISCID=19032003
DTITLE=大谷健吾 - Love Somebody
DYEAR=1995
DGENRE=Japanese Pop
TTITLE0=Love Somebody
TTITLE1=LOVING
TTITLE2=Love Somebody （オリジナルカラオケ）
EXTD=YEAR: 1995
EXTT0=
EXTT1=
EXTT2=
PLAYORDER=
